<?xml version="1.0" standalone="no"?>
<!DOCTYPE svg PUBLIC "-//W3C//DTD SVG 20010904//EN"
 "http://www.w3.org/TR/2001/REC-SVG-20010904/DTD/svg10.dtd">
<svg version="1.0" xmlns="http://www.w3.org/2000/svg"
 width="784.000000pt" height="784.000000pt" viewBox="0 0 784.000000 784.000000"
 preserveAspectRatio="xMidYMid meet">
<metadata>
Created by potrace 1.14, written by Peter Selinger 2001-2017
</metadata>
<g transform="translate(0.000000,784.000000) scale(0.100000,-0.100000)"
fill="#000000" stroke="none">
<path d="M5200 6990 c-215 -30 -590 -150 -590 -189 0 -15 158 -632 163 -637 1
-2 23 2 48 7 l45 10 59 262 c39 170 65 267 77 279 9 9 54 29 100 44 72 24 100
27 208 28 106 1 135 -3 190 -22 180 -63 278 -212 268 -411 -4 -80 -8 -97 -50
-182 -58 -120 -124 -208 -332 -444 -253 -287 -334 -411 -343 -530 -4 -53 -1
-67 26 -118 16 -31 52 -85 78 -120 53 -69 224 -249 264 -278 26 -18 26 -18 60
7 19 14 41 29 49 34 12 7 8 21 -22 87 -48 102 -61 158 -56 240 7 126 76 237
280 456 287 308 396 470 442 658 20 82 21 241 1 334 -48 230 -226 401 -485
466 -97 24 -366 34 -480 19z"/>
<path d="M3065 6073 c-214 -14 -324 -35 -450 -83 -11 -4 -45 -15 -75 -25 -81
-27 -245 -108 -327 -163 -174 -115 -228 -159 -392 -318 -189 -185 -274 -287
-319 -386 -46 -100 -96 -267 -108 -358 -2 -19 -11 -73 -19 -120 -26 -154 -45
-324 -46 -400 -1 -87 34 -375 57 -470 17 -74 58 -199 80 -247 8 -17 14 -36 14
-42 0 -6 4 -19 10 -29 5 -9 24 -53 41 -96 28 -69 48 -108 89 -176 63 -104 256
-473 278 -530 68 -181 82 -257 87 -505 l5 -190 40 -35 c78 -69 115 -97 146
-109 34 -13 51 -7 138 53 45 31 44 30 136 11 95 -20 165 -51 195 -87 24 -29
61 -132 85 -238 18 -82 27 -99 56 -110 38 -15 54 3 54 57 0 54 22 55 31 1 9
-56 55 -141 86 -159 21 -13 39 -15 76 -9 26 4 50 9 53 12 3 3 14 43 25 89 20
81 20 83 1 128 -10 25 -17 52 -15 59 5 14 39 16 48 3 10 -17 34 -209 28 -231
-5 -20 6 -71 27 -127 19 -47 150 -38 150 11 0 31 19 46 57 46 36 0 35 1 68
-93 18 -50 20 -51 107 -61 l47 -5 17 79 c15 69 20 79 42 85 29 7 42 -7 42 -46
0 -15 7 -43 16 -64 15 -37 16 -37 60 -31 25 3 54 11 66 17 22 12 22 8 2 210
l-7 66 33 13 c42 17 57 8 92 -61 29 -57 69 -99 94 -99 8 0 23 9 33 19 17 17
19 31 15 116 -2 53 -6 100 -9 105 -3 4 -2 22 1 39 5 25 23 43 83 85 98 70 104
76 141 171 41 102 69 132 129 140 25 4 55 10 66 15 11 5 52 13 90 19 151 21
178 32 276 114 93 76 131 282 75 400 -14 31 -26 64 -26 74 0 11 -4 23 -9 28
-10 12 -31 182 -37 307 -2 49 -6 93 -8 97 -3 5 9 67 34 171 4 19 22 100 40
180 17 80 35 161 40 180 59 238 69 346 45 507 -14 98 -36 205 -47 233 -4 8 -9
31 -12 50 -10 78 -83 332 -125 440 -63 160 -152 355 -195 425 -14 22 -37 63
-52 90 -48 91 -227 350 -277 403 -70 74 -304 242 -337 242 -8 0 -25 6 -36 14
-39 28 -257 84 -369 95 -159 16 -355 18 -550 4z m1175 -2365 c14 -5 77 -11
140 -14 170 -6 173 -11 183 -229 3 -57 10 -102 21 -122 9 -18 21 -78 28 -133
l12 -102 -75 -71 c-77 -75 -152 -137 -164 -137 -4 0 -19 -9 -34 -20 -51 -36
-121 -53 -215 -52 -49 1 -103 7 -120 14 -17 7 -75 47 -129 90 -54 43 -110 85
-125 93 -64 34 -122 120 -167 245 -26 74 -26 75 -10 127 20 62 59 99 152 144
35 16 91 53 125 80 61 49 107 76 158 90 34 10 189 8 220 -3z m-1605 -133 c294
-20 299 -21 367 -92 38 -40 138 -224 138 -255 0 -10 -18 -52 -40 -94 -22 -41
-47 -104 -56 -140 -30 -131 -106 -244 -172 -257 -68 -14 -180 -18 -217 -9
-164 42 -157 42 -210 25 -27 -8 -64 -21 -80 -28 -71 -32 -84 -34 -114 -24 -33
11 -36 21 -46 129 -8 86 -35 170 -98 310 -43 95 -49 118 -50 177 0 94 44 153
142 187 23 9 52 22 64 31 12 8 36 15 54 15 18 0 41 5 51 10 19 11 138 29 162
24 8 -1 56 -6 105 -9z m774 -525 c19 -10 58 -66 106 -154 28 -52 148 -198 210
-255 54 -50 86 -123 90 -203 3 -80 -8 -147 -26 -159 -18 -11 -62 -11 -91 0
-13 5 -34 12 -48 15 -48 11 -79 48 -106 125 -13 41 -30 81 -36 88 -12 15 -44
17 -52 4 -15 -24 -18 -109 -6 -171 l13 -68 -37 -45 c-45 -55 -57 -60 -99 -43
-17 8 -50 19 -72 26 -76 24 -76 24 -70 198 l6 155 45 106 c63 148 71 174 84
275 13 107 36 135 89 106z"/>
<path d="M5370 4251 c-141 -43 -213 -177 -180 -334 16 -79 62 -143 129 -181
49 -27 64 -30 135 -30 92 1 134 15 191 65 59 52 85 118 85 215 0 66 -4 89 -26
132 -47 95 -127 142 -239 141 -38 0 -81 -4 -95 -8z"/>
<path d="M4497 1789 c-37 -22 -66 -107 -87 -259 -20 -149 -39 -262 -45 -268
-3 -3 -11 0 -17 6 -21 21 -76 14 -93 -11 -29 -45 -29 -84 0 -152 17 -40 25
-74 21 -88 -6 -25 -43 -77 -54 -77 -7 1 -18 24 -57 115 -42 100 -45 101 -95
55 -26 -25 -31 -36 -29 -67 3 -37 3 -38 -26 -35 -17 2 -39 12 -51 23 -20 19
-78 26 -100 11 -14 -9 -39 -82 -49 -142 -9 -53 -20 -70 -48 -70 -21 0 -46 26
-47 48 0 30 -45 74 -97 98 -90 39 -98 34 -98 -71 0 -66 -1 -70 -24 -73 -48 -7
-65 6 -93 68 -16 33 -28 64 -28 70 0 18 -42 32 -79 25 -47 -9 -59 -20 -67 -61
-3 -19 -10 -36 -14 -39 -10 -6 -37 31 -80 112 -36 68 -56 81 -96 61 -42 -21
-50 -40 -36 -93 24 -89 11 -125 -46 -125 -27 0 -31 15 -38 133 -8 125 -22 157
-67 157 -18 0 -41 -6 -52 -14 -23 -17 -16 -76 21 -184 14 -41 23 -81 19 -90
-9 -24 -61 54 -89 134 -13 38 -31 90 -40 117 -24 67 -56 196 -56 223 0 13 -4
25 -9 28 -5 3 -12 35 -16 71 -7 72 -23 110 -57 142 -57 52 -93 32 -108 -63 -9
-56 2 -215 18 -254 3 -8 12 -42 19 -75 7 -33 21 -91 29 -130 21 -91 21 -134
-1 -222 -25 -104 -15 -183 31 -243 18 -25 45 -61 58 -80 32 -47 119 -129 181
-172 66 -46 252 -128 380 -168 74 -24 180 -63 190 -70 6 -5 59 -25 120 -45
105 -36 113 -37 202 -31 110 8 165 29 231 89 26 24 70 59 97 77 61 41 125 91
185 145 46 41 103 89 221 188 64 54 128 124 162 178 25 37 37 173 22 229 -12
42 -33 209 -33 255 0 11 -3 65 -7 120 -4 55 -8 184 -9 286 -1 214 -10 242 -69
208z"/>
</g>
</svg>
